<svg width="835" height="897" viewBox="0 0 835 897" fill="none" xmlns="http://www.w3.org/2000/svg">
<path d="M0.885237 174.17C1.99178 357.414 1.54917 352.103 12.3933 404.996C36.2947 522.511 99.3679 637.592 191.654 732.313C250.522 792.509 314.702 840.975 391.496 882.803L416.504 896.303L439.078 883.909C539.331 828.582 613.912 768.829 678.534 691.592C752.452 603.289 801.582 502.151 822.164 397.25C832.344 345.021 832.787 335.726 833.893 164.211L835 -6.10352e-05H417.389H0L0.885237 174.17ZM796.271 181.916C795.607 302.308 794.722 330.636 791.623 351.882C765.509 530.478 664.813 686.944 503.036 800.476C476.036 819.508 426.463 849.385 419.16 851.156C413.627 852.705 398.135 844.516 360.292 820.836C231.047 739.173 132.343 624.535 79.0074 494.405C57.0978 440.848 41.8275 373.791 37.8439 313.153C35.4095 276.194 34.7456 41.3848 37.18 39.1717C37.8439 38.2864 209.359 37.6225 417.832 37.6225H797.377L796.271 181.916Z" fill="white"/>
<path d="M228.153 98.0444C193.629 105.79 175.039 130.577 177.694 164.437C180.572 199.404 204.694 219.986 246.079 222.863C264.89 224.191 281.046 222.42 286.357 218.437C288.57 216.888 290.341 210.912 291.226 203.609L292.554 191.437L288.57 198.519C282.816 208.92 276.177 212.683 261.571 214.011C243.866 215.781 229.26 210.47 217.751 198.519C205.579 186.126 201.153 176.609 200.047 160.454C197.17 125.487 215.317 104.02 248.071 104.02C271.087 104.241 287.907 114.2 287.907 127.921C287.907 130.798 288.792 132.347 290.12 131.683C291.447 131.02 292.333 123.495 292.333 115.307V100.257L281.931 98.7083C259.8 95.61 239.882 95.3887 228.153 98.0444Z" fill="white"/>
<path d="M376.455 98.0404C355.209 102.909 342.373 112.204 333.078 128.802C327.324 139.204 326.66 142.524 326.66 159.343C326.882 174.171 327.767 180.146 331.75 187.228C337.947 199.4 354.324 213.564 367.16 217.99C386.635 224.851 425.807 225.072 434.881 218.433C437.094 216.662 438.864 211.351 439.749 203.605L440.856 191.433L436.872 198.515C431.118 208.695 424.7 212.679 410.758 214.006C392.389 215.998 379.775 211.351 366.275 198.294C356.98 189.22 353.881 184.351 351.004 173.949C343.037 146.728 351.89 119.065 372.029 108.885C383.094 103.352 402.348 102.245 416.733 106.671C426.249 109.548 436.208 119.507 436.208 126.368C436.208 128.581 437.315 130.573 438.421 130.573C439.749 130.573 440.635 123.934 440.635 115.303V100.253L430.233 98.7043C405.668 95.606 387.963 95.3847 376.455 98.0404Z" fill="white"/>
<path d="M597.324 97.1457C580.947 102.457 571.209 113.744 571.209 127.465C571.209 138.973 579.84 152.252 595.553 164.866C615.25 180.579 619.897 186.776 619.897 196.956C619.897 212.669 600.865 221.522 584.488 213.112C578.513 210.013 575.857 206.694 572.98 198.063C570.988 191.866 569.218 188.989 568.996 191.645C568.996 194.301 568.332 200.94 567.668 206.694C566.119 216.653 566.34 216.874 574.086 220.194C586.258 225.284 605.955 224.399 617.684 218.423C631.848 211.341 636.496 203.817 636.496 188.325C636.496 172.17 630.078 162.211 609.938 147.383C586.037 129.899 581.39 120.162 592.234 109.539C596.217 105.334 599.98 104.006 606.619 104.006C618.791 104.006 623.881 107.105 628.307 116.842L632.069 125.031L632.733 113.08C633.176 106.441 632.733 100.465 631.627 99.3588C628.971 96.7031 603.963 95.1539 597.324 97.1457Z" fill="white"/>
<path d="M481.792 100.475C486.661 102.688 489.095 105.565 489.98 109.77C491.751 118.843 491.53 193.867 489.759 206.924C488.431 216.883 487.546 217.99 481.571 219.318C478.03 220.203 487.325 220.646 502.595 220.646C517.865 220.646 527.382 220.203 523.619 219.76C511.226 217.768 511.447 218.432 511.447 158.9V103.794L518.751 100.696C525.39 97.8188 524.283 97.5975 500.382 97.5975C477.144 97.5975 475.595 97.8188 481.792 100.475Z" fill="white"/>
<path d="M35.0707 315.351C39.0542 382.851 45.7488 471.817 77.3961 538.21C152.084 694.897 248.966 767.763 381.973 845.664L416.497 858.113L443.497 841.182C473.595 824.142 505.796 807.875 536.336 785.08C696.122 664.909 789.293 494.612 798.588 315.351L805.227 294.327H416.497H25.9417L35.0707 315.351ZM443.497 322.212C445.267 322.876 450.579 333.499 455.226 345.671C463.194 366.031 464.521 368.244 471.603 371.121C475.808 372.67 484.882 376.654 491.742 379.752L504.136 385.506L524.718 376.433C536.004 371.564 546.848 367.359 549.062 367.359C553.045 367.359 581.151 393.474 587.569 403.211C591.11 408.523 590.889 409.408 582.037 430.653C572.078 454.776 571.856 452.12 583.586 480.448L589.561 495.055L611.913 503.907L634.266 512.759L634.93 538.21C635.372 556.8 634.708 564.324 632.716 565.874C631.167 566.98 621.43 571.406 611.028 575.39C600.627 579.373 591.332 583.578 590.004 584.685C588.897 585.57 585.799 592.209 583.143 599.291C580.487 606.152 576.947 615.004 575.397 618.988C572.742 625.406 573.184 627.619 582.037 648.201L591.553 670.553L584.692 679.184C576.725 689.143 551.939 712.602 549.062 712.602C548.176 712.602 538.66 708.618 528.037 703.749C507.234 694.233 501.701 693.126 494.841 697.774C492.406 699.544 485.546 702.643 479.349 704.856C473.374 707.069 467.177 709.725 465.849 710.831C464.521 711.716 460.095 721.233 456.112 732.077C452.128 742.7 447.481 752.659 445.931 754.429C442.39 758.413 408.53 760.404 395.252 757.527C386.399 755.536 386.399 755.314 377.768 733.405L369.358 711.274L349.883 703.085C339.482 698.659 329.523 694.897 328.195 694.897C326.867 694.897 316.244 699.102 304.736 703.971L283.49 713.044L273.31 704.856C262.023 695.561 240.999 670.995 242.327 668.782C242.769 667.897 247.196 657.496 252.286 645.766L261.359 624.52L254.499 609.25C250.958 601.062 246.532 591.767 245.204 588.89C243.212 584.906 237.015 581.144 223.737 575.832C196.958 565.21 197.18 565.431 197.18 540.644C197.18 529.136 198.065 518.071 199.171 515.858C200.499 513.866 210.901 508.112 222.852 503.464C234.581 498.595 244.761 493.284 245.204 491.292C245.868 489.522 249.63 480.227 253.614 470.71L260.917 453.448L251.179 431.096C243.433 413.17 242.105 407.859 244.097 405.203C251.843 394.58 280.613 367.359 283.933 367.359C285.925 367.359 296.99 371.343 308.277 376.433L328.637 385.506L341.031 379.752C347.67 376.654 356.744 372.67 361.17 371.121C368.252 368.244 369.58 366.031 377.547 346.113C382.194 333.941 387.284 323.54 388.391 322.654C391.268 320.663 438.628 320.22 443.497 322.212Z" fill="white"/>
<path d="M408.342 385.957C410.776 387.949 416.752 389.719 421.621 389.719C426.711 389.941 428.702 390.383 426.268 391.047C418.301 393.039 418.522 395.031 428.481 407.867C435.784 416.94 439.989 420.481 443.973 420.481C449.727 420.481 478.718 414.063 480.267 412.514C480.931 412.071 477.39 407.645 472.743 402.776C467.874 397.908 465.218 393.924 466.325 393.924C467.653 393.924 471.415 397.022 475.177 400.785C478.718 404.547 483.587 408.752 486.022 410.08C491.112 412.957 509.259 416.055 509.259 414.063C509.259 409.637 468.981 390.383 464.776 392.818C463.891 393.481 458.579 391.932 453.489 389.277C441.096 383.301 401.26 380.203 408.342 385.957Z" fill="white"/>
<path d="M374.247 388.844C358.977 392.828 355.436 395.926 359.42 401.459C362.297 405.442 363.182 405.442 381.108 399.688C391.288 396.369 401.026 393.049 402.796 392.606C405.231 391.942 405.231 391.057 403.018 388.401C399.698 384.418 390.182 384.418 374.247 388.844Z" fill="white"/>
<path d="M384.172 401.891C375.762 404.768 368.017 408.088 366.689 409.416C364.033 412.071 375.32 439.514 379.967 441.284C383.729 442.612 425.557 427.784 427.77 424.243C429.541 421.366 425.114 412.514 417.147 402.998C410.287 394.588 405.418 394.588 384.172 401.891Z" fill="white"/>
<path d="M337.722 404.112C322.451 412.964 314.041 421.153 314.705 426.243C315.591 430.669 316.697 430.448 333.959 420.489C355.869 407.874 354.984 408.759 353.213 403.005C351.443 397.251 349.008 397.472 337.722 404.112Z" fill="white"/>
<path d="M466.095 422.033C442.858 426.902 442.636 427.345 455.03 451.246C462.112 465.189 466.98 471.828 470.3 472.713C474.726 473.82 503.275 464.303 508.587 459.877C511.906 457.222 510.578 453.681 500.841 438.632C492.874 426.017 486.013 418.05 483.357 418.492C482.251 418.714 474.726 420.263 466.095 422.033Z" fill="white"/>
<path d="M496.161 420.926C496.161 422.475 500.809 430.663 506.563 439.294C516.301 453.68 517.628 454.786 525.817 455.45C530.686 455.893 536.44 454.786 538.653 453.016C542.636 450.36 542.415 449.475 534.005 438.852C521.391 423.139 514.53 418.27 504.571 418.27C499.038 418.27 495.94 419.377 496.161 420.926Z" fill="white"/>
<path d="M405.225 441.068C381.987 449.699 381.545 451.691 393.938 478.691C401.905 496.174 403.454 497.945 408.987 497.945C417.175 497.945 453.691 482.674 456.126 478.027C458.339 474.043 452.364 459.437 441.962 443.06C434.659 431.552 430.897 431.331 405.225 441.068Z" fill="white"/>
<path d="M293.01 453.232C286.814 458.986 280.617 465.847 279.289 468.502C276.191 474.699 276.191 497.273 279.289 499.043C283.937 502.141 315.363 476.469 313.592 471.158C312.928 469.388 311.379 462.306 310.051 455.224C308.723 448.363 306.953 442.609 306.068 442.609C305.183 442.609 299.428 447.478 293.01 453.232Z" fill="white"/>
<path d="M346.099 467.398C335.698 472.488 327.288 478.464 326.403 480.677C324.854 485.988 335.919 519.848 341.009 525.16C344.771 529.143 345.435 529.143 366.46 519.848C396.337 506.791 396.779 505.685 385.05 479.349C373.984 453.898 373.32 453.677 346.099 467.398Z" fill="white"/>
<path d="M533.789 461.212C529.584 462.761 525.6 465.195 525.157 466.744C523.608 471.613 542.641 511.228 546.624 511.228C548.616 511.228 553.485 508.572 557.469 505.031L564.772 499.056L561.673 489.982C556.141 474.933 546.846 458.113 543.969 458.335C542.641 458.335 537.993 459.662 533.789 461.212Z" fill="white"/>
<path d="M491.526 475.592C480.682 480.24 476.92 482.895 476.477 486.658C475.37 494.182 491.747 531.362 497.28 533.797C501.042 535.567 505.247 534.239 518.305 527.6C534.017 519.411 534.681 518.747 534.46 511.223C534.239 507.018 530.698 495.731 526.272 486.215C519.19 470.723 517.862 469.174 512.108 469.395C508.788 469.395 499.493 472.273 491.526 475.592Z" fill="white"/>
<path d="M436.204 497.497C412.524 507.898 411.86 508.341 411.86 513.874C411.86 520.291 426.909 555.701 431.999 560.791C435.54 564.775 436.868 564.775 444.392 562.34C449.04 560.791 459.884 555.922 468.293 551.496C480.687 545.078 484.006 542.201 484.449 537.775C485.113 531.8 468.736 493.734 464.31 490.857C459.884 487.98 455.679 489.087 436.204 497.497Z" fill="white"/>
<path d="M557.471 513.003C547.734 519.421 547.291 522.52 552.602 545.536C557.029 564.126 558.578 566.339 564.332 561.249C572.52 553.946 574.291 545.757 571.414 528.495C567.873 506.807 567.209 506.364 557.471 513.003Z" fill="white"/>
<path d="M265.123 524.059C259.59 531.141 259.147 533.354 260.254 543.313C262.024 557.035 264.901 570.977 266.672 572.526C268.221 574.297 285.704 560.133 285.704 557.035C285.483 550.617 275.524 516.978 273.532 516.535C272.204 516.092 268.442 519.412 265.123 524.059Z" fill="white"/>
<path d="M519.205 535.132C506.59 541.771 503.492 544.427 503.049 549.296C502.164 557.263 513.45 590.902 517.655 592.451C521.418 594 532.262 588.689 543.327 579.394C549.967 574.082 551.294 571.426 551.294 564.345C551.294 551.066 543.106 526.722 538.458 526.722C536.467 526.722 527.836 530.484 519.205 535.132Z" fill="white"/>
<path d="M316.473 552.173C298.768 561.247 295.891 564.566 297.883 572.534C300.76 584.042 313.817 610.156 317.579 611.484C322.227 613.254 354.317 601.746 357.194 597.099C361.399 590.46 338.604 543.542 331.743 544.427C331.301 544.649 324.44 547.968 316.473 552.173Z" fill="white"/>
<path d="M464.747 561.675C445.271 570.97 440.624 574.511 440.624 579.601C440.624 586.904 456.558 621.65 460.763 622.978C463.198 623.863 472.714 620.322 485.328 613.683C501.484 605.273 506.132 601.954 506.574 597.749C507.459 592.437 497.279 561.011 493.296 555.921C489.755 551.716 482.894 553.044 464.747 561.675Z" fill="white"/>
<path d="M565.681 564.778C561.033 571.639 559.041 577.836 558.377 586.909C557.05 603.95 558.82 607.048 563.246 596.425C567.451 587.13 574.312 557.696 572.762 556.368C572.32 555.705 569 559.688 565.681 564.778Z" fill="white"/>
<path d="M534.909 591.571L519.86 602.857L521.188 615.029C523.622 634.947 524.729 637.824 529.598 636.718C533.581 635.611 533.581 635.832 530.704 639.152C528.712 641.144 526.057 646.013 524.729 649.554L522.295 656.193L529.155 649.554C539.557 639.595 550.179 624.103 553.278 614.144C556.376 604.185 555.712 581.612 552.393 580.726C551.286 580.505 543.319 585.374 534.909 591.571Z" fill="white"/>
<path d="M400.787 590C379.098 599.074 376.443 601.066 376.443 606.82C376.443 611.246 390.164 638.025 395.918 644.443C400.344 649.754 403.221 649.311 424.909 640.902C450.803 630.943 451.245 629.836 440.401 605.271C435.532 594.427 430.442 584.689 428.893 583.804C424.467 580.927 420.262 581.812 400.787 590Z" fill="white"/>
<path d="M487.11 619.901C466.749 630.967 464.979 632.516 464.979 637.606C464.979 643.803 475.38 666.155 478.257 666.155C483.348 666.155 511.675 649.999 515.659 644.909C519.421 640.262 519.421 638.491 516.987 627.647C512.118 607.065 511.011 606.844 487.11 619.901Z" fill="white"/>
<path d="M298.561 625.632C289.93 626.96 290.815 631.165 302.545 646.436C310.512 656.394 314.938 659.935 321.799 661.927C331.315 664.362 336.626 663.476 336.405 659.05C336.405 657.501 331.758 649.091 326.004 640.681C315.159 624.526 312.946 623.419 298.561 625.632Z" fill="white"/>
<path d="M497.734 660.829C483.791 669.018 480.472 671.895 480.472 676.321C480.472 683.845 484.898 683.182 501.496 672.559C514.996 664.149 520.307 658.616 520.307 653.083C520.307 648.879 515.217 650.649 497.734 660.829Z" fill="white"/>
<path d="M446.373 682.952C428.225 689.149 427.34 690.034 432.43 693.796C436.414 696.673 448.807 695.346 464.963 690.255C474.922 687.157 476.471 685.387 474.7 680.96C472.93 676.092 465.405 676.534 446.373 682.952Z" fill="white"/>
</svg>
